HIERARCHY
ROOT hip
{
	OFFSET 0.000000 0.000000 0.000000 
	CHANNELS 6 Xposition Yposition Zposition Xrotation Zrotation Yrotation
	JOINT abdomen
	{
		OFFSET 0.000000 3.402643 0.000000 
		CHANNELS 3 Xrotation Zrotation Yrotation
		JOINT chest
		{
			OFFSET 0.000000 8.438565 -0.680529 
			CHANNELS 3 Xrotation Zrotation Yrotation
			JOINT neck
			{
				OFFSET 0.000000 10.207942 -0.272212 
				CHANNELS 3 Xrotation Zrotation Yrotation
				JOINT head
				{
					OFFSET 0.000000 3.130431 0.000000 
					CHANNELS 3 Xrotation Zrotation Yrotation
					End Site
					{
						OFFSET 0.000000 3.130435 0.000000 
					}
				}
			}
			JOINT lCollar
			{
				OFFSET 3.470700 6.669187 -0.816635 
				CHANNELS 3 Yrotation Zrotation Xrotation
				JOINT lShldr
				{
					OFFSET 3.198488 0.000000 0.000000 
					CHANNELS 3 Zrotation Yrotation Xrotation
					JOINT lForeArm
					{
						OFFSET 10.139888 0.000000 0.000000 
						CHANNELS 3 Yrotation Zrotation Xrotation
						JOINT lHand
						{
							OFFSET 8.370511 0.000000 0.000000 
							CHANNELS 3 Zrotation Yrotation Xrotation
							End Site
							{
								OFFSET 4.083176 0.000000 0.000000 
							}
						}
					}
				}
			}
			JOINT rCollar
			{
				OFFSET -3.470700 6.669187 -0.816635 
				CHANNELS 3 Yrotation Zrotation Xrotation
				JOINT rShldr
				{
					OFFSET -3.198488 0.000000 0.000000 
					CHANNELS 3 Zrotation Yrotation Xrotation
					JOINT rForeArm
					{
						OFFSET -10.139888 0.000000 0.000000 
						CHANNELS 3 Yrotation Zrotation Xrotation
						JOINT rHand
						{
							OFFSET -8.370511 0.000000 0.000000 
							CHANNELS 3 Zrotation Yrotation Xrotation
							End Site
							{
								OFFSET -4.083176 0.000000 0.000000 
							}
						}
					}
				}
			}
		}
	}
	JOINT lThigh
	{
		OFFSET 5.308129 -1.633274 1.361059 
		CHANNELS 3 Xrotation Zrotation Yrotation
		JOINT lShin
		{
			OFFSET -2.041588 -20.007561 0.000000 
			CHANNELS 3 Xrotation Zrotation Yrotation
			JOINT lFoot
			{
				OFFSET 0.000000 -19.190928 -1.224953 
				CHANNELS 3 Xrotation Yrotation Zrotation
				End Site
				{
					OFFSET 0.000000 -2.449906 4.627600 
				}
			}
		}
	}
	JOINT rThigh
	{
		OFFSET -5.308129 -1.633274 1.361059 
		CHANNELS 3 Xrotation Zrotation Yrotation
		JOINT rShin
		{
			OFFSET 2.041588 -20.007561 0.000000 
			CHANNELS 3 Xrotation Zrotation Yrotation
			JOINT rFoot
			{
				OFFSET 0.000000 -19.190928 -1.224953 
				CHANNELS 3 Xrotation Yrotation Zrotation
				End Site
				{
					OFFSET 0.000000 -2.449906 4.627600 
				}
			}
		}
	}
}
MOTION
Frames: 16
Frame Time: 0.016667
-4.064236 50.603451 3.612757 -6.219847 2.156820 -2.051900 38.142944 1.753343 1.906721 1.777466 1.337567 1.836506 -7.998304 -6.788648 0.763384 5.349539 -1.904102 -0.820833 -0.095663 -12.787910 -0.677867 -48.191685 2.965272 -8.818531 -41.987370 -5.000000 20.830000 -24.250023 -10.439562 14.497210 0.679222 10.018332 -0.521379 51.010147 5.455760 -1.678007 61.909271 5.000000 18.081835 19.893476 -6.174819 -36.076637 -14.843031 22.312698 12.092315 42.006275 -1.223316 -1.049946 -8.602727 7.477084 -2.403626 10.872489 -8.219787 -13.685567 26.452559 1.725686 0.877854 -24.249622 -8.472793 4.469027 
-4.052798 50.794010 3.485332 -6.243788 2.176203 -2.149854 37.294147 1.387858 1.663753 1.508550 1.337672 1.514074 -7.806903 -6.511585 0.700717 6.018671 -1.669873 -0.439836 -0.111319 -12.466093 -0.661271 -48.543060 3.308867 -8.708420 -41.276157 -5.000000 21.568933 -24.408039 -10.194731 14.862451 0.235108 9.501465 -0.494614 50.290840 3.078449 -3.519068 67.731079 5.000000 15.094390 20.976612 -5.301525 -35.014843 -12.167121 22.125729 12.048277 42.302742 -1.356778 -1.192756 -8.416524 7.614683 -2.457904 11.705350 -8.142879 -13.778129 24.313908 1.901521 0.891084 -23.096424 -8.185127 4.592964 
-4.009919 50.947029 3.369816 -6.253181 2.137126 -2.179132 36.488808 1.143796 1.499262 1.258708 1.337763 1.152584 -7.685760 -6.271674 0.654608 6.652871 -1.455076 -0.097873 -0.156715 -12.173523 -0.646166 -48.833721 3.641611 -8.604572 -40.713814 -5.000000 22.357607 -24.580658 -9.964169 15.207542 -0.151275 8.848063 -0.459219 49.309666 0.774576 -5.040452 74.666153 5.000000 10.894224 21.273195 -4.346632 -33.788078 -9.392419 21.885603 12.035599 41.732182 -1.594534 -1.440142 -8.067801 7.790724 -2.740217 12.430830 -7.988249 -13.824940 22.361242 1.940693 0.806963 -22.032492 -7.979485 4.788263 
-3.946082 51.075024 3.262238 -6.249857 2.059071 -2.169024 35.704674 0.966112 1.377667 1.027941 1.337834 0.762031 -7.624575 -6.039950 0.618515 7.280293 -1.240225 0.224557 -0.222171 -11.919962 -0.631044 -49.092937 3.966104 -8.501301 -40.259037 -5.000000 23.188107 -24.773741 -9.748263 15.551841 -0.508536 8.116638 -0.419952 48.179752 -1.489716 -6.327228 82.754822 5.000000 5.367721 21.061045 -3.315128 -32.447849 -6.562034 21.623369 11.958013 40.512791 -1.903378 -1.670140 -7.560251 7.889528 -3.262403 13.081861 -7.782270 -13.860398 20.530478 1.910972 0.718083 -21.049746 -7.832782 5.016301 
-3.873897 51.195328 3.156185 -6.245184 1.971294 -2.129997 34.959305 0.804601 1.255793 0.787363 1.328111 0.371249 -7.573300 -5.808226 0.583478 7.871063 -1.044876 0.537198 -0.287907 -11.685902 -0.618974 -49.310162 4.269849 -8.395477 -39.852905 -5.000000 24.006615 -24.975531 -9.540625 15.893302 -0.835993 7.385210 -0.382119 47.028347 -3.692338 -7.444829 91.531845 5.000000 -1.140985 20.720179 -2.438706 -30.953571 -3.730728 21.321951 11.919440 38.975384 -2.250718 -1.895800 -7.122047 8.107204 -3.843712 13.721735 -7.575308 -13.913233 18.770712 1.861748 0.592762 -20.089367 -7.681309 5.262599 
-3.768320 51.284920 3.056233 -6.246879 1.893408 -1.973515 34.350872 0.691136 1.127477 0.557325 1.337891 0.000220 -7.590997 -5.624776 0.555734 8.367885 -0.839771 0.752016 -0.374507 -11.568861 -0.612936 -49.371613 4.502625 -8.231188 -39.679230 -5.000000 24.757835 -25.215439 -9.370337 16.249863 -1.035816 6.683035 -0.344603 45.640823 -5.614007 -8.036980 100.295616 5.000000 -8.072075 19.714897 -2.139822 -28.889791 -0.869695 20.984581 11.948529 36.156723 -2.670332 -2.048454 -6.932868 8.436665 -4.939180 14.288669 -7.360774 -14.090841 17.265934 1.695689 0.497010 -19.204126 -7.658572 5.526264 
-3.662746 51.374512 2.956281 -6.249000 1.815493 -1.817041 33.742493 0.589132 1.004790 0.317441 1.347648 -0.380803 -7.599848 -5.430207 0.536135 8.856477 -0.634675 0.966846 -0.470991 -11.461571 -0.607398 -49.441097 4.728062 -8.060801 -39.480694 -5.000000 25.531857 -25.441942 -9.191721 16.598457 -1.235232 5.971106 -0.307786 44.270161 -7.538404 -8.581829 109.699524 5.000000 -15.864056 18.755341 -1.767618 -26.818884 1.969694 20.635559 11.966410 33.327984 -3.089136 -2.161192 -6.669298 8.729040 -6.022944 14.856461 -7.156223 -14.258399 15.767197 1.566580 0.420294 -18.324505 -7.566898 5.826455 
-3.531037 51.441341 2.854853 -6.256995 1.698595 -1.553210 33.262051 0.548975 0.901537 0.116845 1.347618 -0.703236 -7.687210 -5.274259 0.522379 9.249724 -0.439379 1.054657 -0.556694 -11.442146 -0.596820 -49.438789 4.800285 -7.831408 -39.430031 -5.000000 26.160452 -25.640005 -9.039597 16.970102 -1.345771 5.366452 -0.276479 43.116127 -9.041913 -8.813442 117.626701 5.000000 -22.851963 17.671980 -2.325308 -24.458801 4.674114 20.333687 12.244185 29.590927 -3.527784 -2.125817 -6.826531 9.129122 -7.279428 15.377007 -6.932784 -14.539372 14.446985 1.432413 0.317068 -17.544819 -7.516428 6.072978 
-3.392801 51.502487 2.753057 -6.265096 1.562116 -1.269858 32.791969 0.536899 0.811694 -0.064450 1.347566 -1.035202 -7.803965 -5.127965 0.510085 9.624393 -0.234332 1.103506 -0.634923 -11.451899 -0.597324 -49.404213 4.828812 -7.588205 -39.392891 -5.000000 26.776127 -25.834282 -8.893885 17.323586 -1.436356 4.781301 -0.245339 41.998901 -10.436024 -8.944798 125.455040 5.000000 -30.041676 16.523022 -3.038952 -21.994467 7.338481 20.030931 12.563732 25.592163 -3.946211 -2.049648 -6.977054 9.515836 -8.599119 15.860032 -6.717024 -14.840776 13.192387 1.315766 0.260925 -16.738394 -7.496876 6.344781 
-3.244624 51.549408 2.645571 -6.262911 1.357232 -0.957225 32.392406 0.630656 0.778291 -0.244451 1.337744 -1.308818 -7.931421 -4.989866 0.508872 9.921327 -0.029292 1.074219 -0.724792 -11.451777 -0.606895 -49.420258 4.764020 -7.295068 -39.421268 -5.000000 27.278290 -25.992899 -8.773895 17.707796 -1.486615 4.254918 -0.227847 41.172626 -11.654761 -9.035167 132.240280 5.000000 -36.529167 15.223983 -4.053971 -19.886648 9.810690 19.829544 13.023907 21.568012 -4.385968 -1.901029 -7.073919 9.743138 -9.811871 16.289446 -6.433850 -15.155520 12.014239 1.227021 0.194431 -16.017752 -7.447997 6.583671 
-3.081547 51.574986 2.529550 -6.241131 1.025335 -0.595783 32.064415 0.848834 0.830805 -0.383911 1.298632 -1.504093 -8.077628 -4.862884 0.499504 10.129926 0.185523 0.917996 -0.812576 -11.442009 -0.606391 -49.495361 4.571817 -6.942115 -39.534267 -5.000000 27.630569 -26.099220 -8.699053 18.116674 -1.478633 3.786793 -0.203636 40.763233 -12.594968 -9.104966 137.452789 5.000000 -41.807354 13.689356 -5.561053 -18.310698 12.028282 19.753914 13.711693 17.392492 -4.813576 -1.671284 -6.991923 9.816522 -10.858318 16.651085 -6.062963 -15.499125 10.995687 1.196647 0.171110 -15.372438 -7.420352 6.805001 
-2.918468 51.600567 2.413530 -6.223539 0.693354 -0.234358 31.756353 1.080024 0.876893 -0.532937 1.259515 -1.709138 -8.234486 -4.744093 0.501220 10.337354 0.400355 0.761769 -0.888517 -11.422644 -0.593878 -49.572399 4.388151 -6.582182 -39.642990 -5.000000 27.983912 -26.213734 -8.624387 18.518007 -1.480784 3.318418 -0.169664 40.347549 -13.536904 -9.160147 142.781998 5.000000 -45.000000 12.078117 -6.976967 -16.671219 14.242472 19.654381 14.394929 13.241920 -5.231942 -1.424536 -6.924832 9.876425 -11.885974 16.998568 -5.692939 -15.810614 9.967680 1.167107 0.118950 -14.707086 -7.422360 6.988129 
-2.742311 51.607674 2.276824 -6.190658 0.244139 0.175821 31.529619 1.484031 0.955006 -0.592198 1.239966 -1.787253 -8.509174 -4.702545 0.514623 10.435333 0.624974 0.517654 -0.929552 -11.422484 -0.605383 -49.727440 4.013423 -6.177836 -39.835442 -5.000000 28.099756 -26.222153 -8.567648 18.865583 -1.471313 3.035845 -0.164768 40.507217 -13.904429 -9.234128 144.805481 5.000000 -45.000000 10.511808 -7.900079 -16.139954 15.667672 19.751701 15.139869 9.981740 -5.641322 -1.188957 -6.225642 9.395337 -12.315230 17.242296 -5.293154 -16.204739 9.128601 1.246106 0.161160 -14.089618 -7.346981 7.144413 
-2.566154 51.614780 2.140120 -6.154406 -0.205068 0.576168 31.313334 1.871400 1.046721 -0.651634 1.220413 -1.884898 -8.783931 -4.670653 0.529489 10.541064 0.859366 0.263789 -0.956877 -11.422643 -0.593878 -49.895058 3.647700 -5.765598 -40.036976 -5.000000 28.213694 -26.238890 -8.512236 19.204416 -1.452569 2.753016 -0.150122 40.664974 -14.278033 -9.305409 146.877411 5.000000 -45.000000 8.926640 -8.788541 -15.577261 17.133852 19.850540 15.894088 6.689204 -6.058151 -0.926892 -5.542361 8.913422 -12.692606 17.465065 -4.863070 -16.580694 8.292758 1.285133 0.171129 -13.487294 -7.326838 7.278732 
-2.391433 51.624458 1.993240 -6.083646 -0.576095 0.937453 31.123417 2.162822 1.095859 -0.700878 1.220403 -1.923956 -9.019330 -4.609795 0.539976 10.556456 1.083984 -0.009764 -1.017338 -11.412719 -0.604879 -50.055450 3.270634 -5.363062 -40.264305 -5.000000 28.200987 -26.230511 -8.494893 19.451296 -1.443488 2.664995 -0.135824 40.846794 -14.307467 -9.310419 147.423126 5.000000 -45.000000 8.150851 -8.963526 -15.327597 18.070492 19.880087 16.533529 4.220197 -6.379043 -0.719249 -4.837895 8.359913 -12.762477 17.605242 -4.580174 -16.970596 7.578314 1.402484 0.190292 -12.905852 -7.230547 7.441027 
-2.217667 51.635849 1.839578 -5.986639 -0.888450 1.279446 30.941744 2.388273 1.127933 -0.750350 1.239925 -1.943483 -9.225402 -4.548935 0.550466 10.510440 1.308574 -0.312419 -1.095463 -11.412704 -0.604879 -50.219013 2.902339 -4.966312 -40.521603 -5.000000 28.098993 -26.204012 -8.511271 19.633133 -1.443418 2.694253 -0.137339 41.055908 -14.111926 -9.265404 146.873932 5.000000 -45.000000 7.943493 -8.662117 -15.310921 18.690603 19.882524 17.078104 2.287909 -6.631874 -0.538817 -4.141137 7.821558 -12.584410 17.672920 -4.345717 -17.343014 6.939495 1.508938 0.172227 -12.338114 -7.114748 7.566558 
